HIERARCHY
ROOT hip
{
  OFFSET 0 0 0
  CHANNELS 6 Xposition Yposition Zposition Zrotation Yrotation Xrotation
  JOINT abdomen
  {
    OFFSET 0 20.6881 -0.73152
    CHANNELS 3 Zrotation Xrotation Yrotation
    JOINT chest
    {
      OFFSET 0 11.7043 -0.48768
      CHANNELS 3 Zrotation Xrotation Yrotation
      JOINT neck
      {
        OFFSET 0 22.1894 -2.19456
        CHANNELS 3 Zrotation Xrotation Yrotation
        JOINT head
        {
          OFFSET -0.24384 7.07133 1.2192
          CHANNELS 3 Zrotation Xrotation Yrotation
          JOINT leftEye
          {
            OFFSET 4.14528 8.04674 8.04672
            CHANNELS 3 Zrotation Xrotation Yrotation
            End Site
            {
              OFFSET 1 0 0
            }
          }
          JOINT rightEye
          {
            OFFSET -3.6576 8.04674 8.04672
            CHANNELS 3 Zrotation Xrotation Yrotation
            End Site
            {
              OFFSET 1 0 0
            }
          }
        }
      }
      JOINT rCollar
      {
        OFFSET -2.68224 19.2634 -4.8768
        CHANNELS 3 Zrotation Xrotation Yrotation
        JOINT rShldr
        {
          OFFSET -8.77824 -1.95073 1.46304
          CHANNELS 3 Zrotation Xrotation Yrotation
          JOINT rForeArm
          {
            OFFSET -28.1742 -1.7115 0.48768
            CHANNELS 3 Zrotation Xrotation Yrotation
            JOINT rHand
            {
              OFFSET -22.5879 0.773209 7.07136
              CHANNELS 3 Zrotation Xrotation Yrotation
              JOINT rThumb1
              {
                OFFSET -1.2192 -0.487915 3.41376
                CHANNELS 3 Zrotation Xrotation Yrotation
                JOINT rThumb2
                {
                  OFFSET -3.37035 -0.52449 3.41376
                  CHANNELS 3 Zrotation Xrotation Yrotation
                  End Site
                  {
                    OFFSET -1.78271 -1.18214 1.43049
                  }
                }
              }
              JOINT rIndex1
              {
                OFFSET -7.75947 0.938293 5.60832
                CHANNELS 3 Zrotation Xrotation Yrotation
                JOINT rIndex2
                {
                  OFFSET -2.54057 -0.884171 1.56538
                  CHANNELS 3 Zrotation Xrotation Yrotation
                  End Site
                  {
                    OFFSET -1.62519 -0.234802 1.16502
                  }
                }
              }
              JOINT rMid1
              {
                OFFSET -8.24714 1.18213 3.41376
                CHANNELS 3 Zrotation Xrotation Yrotation
                JOINT rMid2
                {
                  OFFSET -3.10165 -0.590103 1.0647
                  CHANNELS 3 Zrotation Xrotation Yrotation
                  End Site
                  {
                    OFFSET -2.48547 -0.328903 0.83742
                  }
                }
              }
              JOINT rRing1
              {
                OFFSET -8.82822 0.546677 1.51678
                CHANNELS 3 Zrotation Xrotation Yrotation
                JOINT rRing2
                {
                  OFFSET -2.60934 -0.819778 -0.0198488
                  CHANNELS 3 Zrotation Xrotation Yrotation
                  End Site
                  {
                    OFFSET -2.33842 -0.294052 0.168128
                  }
                }
              }
              JOINT rPinky1
              {
                OFFSET -8.27202 -0.0477905 -0.4584
                CHANNELS 3 Zrotation Xrotation Yrotation
                JOINT rPinky2
                {
                  OFFSET -1.82734 -0.647385 -0.700984
                  CHANNELS 3 Zrotation Xrotation Yrotation
                  End Site
                  {
                    OFFSET -1.69225 -0.51767 -0.607171
                  }
                }
              }
            }
          }
        }
      }
      JOINT lCollar
      {
        OFFSET 2.68224 19.2634 -4.8768
        CHANNELS 3 Zrotation Xrotation Yrotation
        JOINT lShldr
        {
          OFFSET 8.77824 -1.95073 1.46304
          CHANNELS 3 Zrotation Xrotation Yrotation
          JOINT lForeArm
          {
            OFFSET 28.1742 -1.7115 0.48768
            CHANNELS 3 Zrotation Xrotation Yrotation
            JOINT lHand
            {
              OFFSET 22.5879 0.773209 7.07136
              CHANNELS 3 Zrotation Xrotation Yrotation
              JOINT lThumb1
              {
                OFFSET 1.2192 -0.487915 3.41376
                CHANNELS 3 Zrotation Xrotation Yrotation
                JOINT lThumb2
                {
                  OFFSET 3.37035 -0.52449 3.41376
                  CHANNELS 3 Zrotation Xrotation Yrotation
                  End Site
                  {
                    OFFSET 1.78271 -1.18214 1.43049
                  }
                }
              }
              JOINT lIndex1
              {
                OFFSET 7.75947 0.938293 5.60832
                CHANNELS 3 Zrotation Xrotation Yrotation
                JOINT lIndex2
                {
                  OFFSET 2.54057 -0.884171 1.56538
                  CHANNELS 3 Zrotation Xrotation Yrotation
                  End Site
                  {
                    OFFSET 1.62519 -0.234802 1.16502
                  }
                }
              }
              JOINT lMid1
              {
                OFFSET 8.24714 1.18213 3.41376
                CHANNELS 3 Zrotation Xrotation Yrotation
                JOINT lMid2
                {
                  OFFSET 3.10165 -0.590103 1.0647
                  CHANNELS 3 Zrotation Xrotation Yrotation
                  End Site
                  {
                    OFFSET 2.48547 -0.328903 0.83742
                  }
                }
              }
              JOINT lRing1
              {
                OFFSET 8.82822 0.546677 1.51678
                CHANNELS 3 Zrotation Xrotation Yrotation
                JOINT lRing2
                {
                  OFFSET 2.60934 -0.819778 -0.0198488
                  CHANNELS 3 Zrotation Xrotation Yrotation
                  End Site
                  {
                    OFFSET 2.33842 -0.294052 0.168128
                  }
                }
              }
              JOINT lPinky1
              {
                OFFSET 8.27202 -0.0477905 -0.4584
                CHANNELS 3 Zrotation Xrotation Yrotation
                JOINT lPinky2
                {
                  OFFSET 1.82734 -0.647385 -0.700984
                  CHANNELS 3 Zrotation Xrotation Yrotation
                  End Site
                  {
                    OFFSET 1.69225 -0.51767 -0.607171
                  }
                }
              }
            }
          }
        }
      }
    }
  }
  JOINT rButtock
  {
    OFFSET -8.77824 4.35084 1.2192
    CHANNELS 3 Zrotation Xrotation Yrotation
    JOINT rThigh
    {
      OFFSET 0 -1.70687 -2.19456
      CHANNELS 3 Zrotation Xrotation Yrotation
      JOINT rShin
      {
        OFFSET 0 -36.8199 0.73152
        CHANNELS 3 Zrotation Xrotation Yrotation
        JOINT rFoot
        {
          OFFSET 0.73152 -45.1104 -5.12064
          CHANNELS 3 Zrotation Xrotation Yrotation
          End Site
          {
            OFFSET -1.1221 -3.69964 12.103
          }
        }
      }
    }
  }
  JOINT lButtock
  {
    OFFSET 8.77824 4.35084 1.2192
    CHANNELS 3 Zrotation Xrotation Yrotation
    JOINT lThigh
    {
      OFFSET 0 -1.70687 -2.19456
      CHANNELS 3 Zrotation Xrotation Yrotation
      JOINT lShin
      {
        OFFSET 0 -36.8199 0.73152
        CHANNELS 3 Zrotation Xrotation Yrotation
        JOINT lFoot
        {
          OFFSET -0.73152 -45.1104 -5.12064
          CHANNELS 3 Zrotation Xrotation Yrotation
          End Site
          {
            OFFSET 1.1221 -3.69964 12.103
          }
        }
      }
    }
  }
}
MOTION
Frames:	9
Frame Time:	0.00833333
-7.88831 85.1388 129.421 0.0 0.0 0.0 0.410575 -0.00336393 0.0117802 0.113455 -0.00539469 0.0196586 1.2986e-14 7.95139e-16 -1.36665e-16 3.89214e-14 9.54166e-15 -3.71168e-16 -0.0 0.0 0.0 -0.0 0.0 0.0 6.50906e-15 -4.65902e-18 4.96962e-17 1.37568e-13 1.61513e-16 3.97569e-16 2.34248e-12 -7.0012e-13 -6.67917e-14 2.6741e-11 6.85062e-13 -2.03556e-13 6.30873e-11 -3.50454e-14 -5.56597e-13 1.08936e-10 -6.36111e-14 -9.67684e-13 6.30895e-11 -3.65764e-14 -5.66139e-13 7.73091 5.47488 0.417314 6.30872e-11 -3.60794e-14 -5.50236e-13 2.90554 0.965183 0.102902 6.30874e-11 -3.56818e-14 -5.58187e-13 10.2786 0.731801 0.0259123 6.30795e-11 -3.18055e-14 -5.50236e-13 2.22167 -0.733487 -0.20892 6.41237e-15 -5.24139e-18 -1.49089e-16 1.33259e-13 2.98177e-16 -1.59028e-15 2.33328e-12 6.97933e-13 -1.59028e-14 2.67485e-11 -7.0909e-13 -2.38542e-13 6.30869e-11 -3.05461e-14 -5.56597e-13 1.08965e-10 -5.40694e-14 -9.63708e-13 6.30843e-11 -3.37934e-14 -5.50236e-13 -7.73091 5.47488 -0.417314 6.30884e-11 -3.15074e-14 -5.62958e-13 -2.90554 0.965183 -0.102902 6.30809e-11 -3.10104e-14 -5.55802e-13 -10.2786 0.731801 -0.0259123 6.30948e-11 -2.70347e-14 -5.62958e-13 -2.22167 -0.733487 0.20892 -2.03217e-16 0.0 -3.88251e-19 0.770898 -4.17179 -0.0656917 -0.00265696 2.00547 -0.018289 -0.462134 2.16691 0.0961418 2.03217e-16 0.0 3.88251e-19 -0.142942 -2.55997 0.0260621 0.00716108 -0.914059 0.0621532 0.45347 3.47456 -0.121181
-7.71108 83.5398 124.434 177.766 -1.7207 -154.532 -1.15344 -7.6377 -1.00774 0.952698 3.42883 -0.375481 -0.33598 4.06957 -0.973105 1.72616 -6.86433 -1.5128 -0.0 0.0 0.0 -0.0 0.0 0.0 4.22074e-14 -6.03596e-14 3.48327e-14 22.6543 2.36681 -2.46775 -4.7328 -2.26342 7.26546 0.000706271 -0.590855 -0.0830234 -1.71604e-10 -1.8427e-10 6.31651e-10 -2.95962e-10 -3.17571e-10 1.09304e-09 -1.71602e-10 -1.84269e-10 6.31643e-10 7.73091 5.47488 0.417314 -1.71605e-10 -1.8427e-10 6.31656e-10 2.90554 0.965183 0.102902 -1.71602e-10 -1.84269e-10 6.31648e-10 10.2786 0.731801 0.0259123 -1.71611e-10 -1.84266e-10 6.31655e-10 2.22167 -0.733487 -0.20892 4.21492e-14 -6.03594e-14 3.46487e-14 -20.7288 2.29748 0.703576 2.06405 -0.719578 -3.42198 -0.0288433 3.77095 -0.525842 1.2021e-10 -3.8926e-10 -1.08753e-09 1.96215e-10 -6.74426e-10 -1.88003e-09 1.20206e-10 -3.89263e-10 -1.08752e-09 -7.73091 5.47488 -0.417314 1.20211e-10 -3.89262e-10 -1.08753e-09 -2.90554 0.965183 -0.102902 1.20201e-10 -3.89261e-10 -1.08753e-09 -10.2786 0.731801 -0.0259123 1.20214e-10 -3.89257e-10 -1.08753e-09 -2.22167 -0.733487 0.20892 -2.03217e-16 0.0 -3.88251e-19 0.885077 -11.7583 1.35828 0.00261284 4.52658 0.0451423 -0.643558 -2.14919 -1.23087 2.03217e-16 0.0 3.88251e-19 -1.09363 -9.33307 -1.83723 0.00807516 1.29279 0.0372453 0.499168 1.92817 -1.78675
-7.69988 83.4967 124.451 177.813 -1.6118 -154.449 -3.11522 -15.6946 -2.15293 1.89343 7.05955 -0.799288 -0.543974 8.37066 -2.01759 3.14884 -14.1171 -3.18386 -0.0 0.0 0.0 -0.0 0.0 0.0 8.04542e-14 -1.35772e-13 7.2926e-14 46.823 4.86182 -5.08552 -9.11491 -4.53308 14.9787 -0.000408512 -1.21086 -0.170172 -4.02741e-10 -4.30811e-10 1.38535e-09 -6.94636e-10 -7.42623e-10 2.39725e-09 -4.02739e-10 -4.30809e-10 1.38535e-09 7.73091 5.47488 0.417314 -4.02743e-10 -4.3081e-10 1.38536e-09 2.90554 0.965183 0.102902 -4.02738e-10 -4.30809e-10 1.38535e-09 10.2786 0.731801 0.0259123 -4.02748e-10 -4.30807e-10 1.38535e-09 2.22167 -0.733487 -0.20892 8.04363e-14 -1.35771e-13 7.27583e-14 -42.7047 4.70911 1.45118 4.15112 -1.47095 -7.03851 0.016645 7.77136 -1.09147 2.3991e-10 -8.39982e-10 -2.36924e-09 3.89523e-10 -1.45534e-09 -4.09623e-09 2.39904e-10 -8.39987e-10 -2.36922e-09 -7.73091 5.47488 -0.417314 2.39911e-10 -8.39986e-10 -2.36924e-09 -2.90554 0.965183 -0.102902 2.39899e-10 -8.39985e-10 -2.36923e-09 -10.2786 0.731801 -0.0259123 2.39911e-10 -8.39982e-10 -2.36924e-09 -2.22167 -0.733487 0.20892 -2.03217e-16 0.0 -3.88251e-19 1.43604 -19.7546 2.97597 0.00202998 7.19088 0.112795 -1.05405 -6.70681 -2.65121 2.03217e-16 0.0 3.88251e-19 -2.60057 -16.4607 -3.92096 0.0112217 3.62376 0.0109525 0.449623 0.295628 -3.54804
-7.69074 83.4724 124.454 177.837 -1.5247 -154.388 -5.15511 -22.8763 -3.27803 2.77524 10.2953 -1.18279 -0.58529 12.1945 -2.97924 4.0296 -20.5335 -4.81227 -0.0 0.0 0.0 -0.0 0.0 0.0 1.13604e-13 -1.81069e-13 1.04399e-13 68.5767 7.04758 -7.45355 -12.5136 -6.35445 21.9209 -0.00302026 -1.77255 -0.249176 -6.40986e-10 -5.52739e-10 1.89607e-09 -1.10576e-09 -9.52586e-10 3.28106e-09 -6.40984e-10 -5.52735e-10 1.89606e-09 7.73091 5.47488 0.417314 -6.40989e-10 -5.52737e-10 1.89607e-09 2.90554 0.965183 0.102902 -6.40981e-10 -5.52737e-10 1.89606e-09 10.2786 0.731801 0.0259123 -6.40992e-10 -5.52735e-10 1.89607e-09 2.22167 -0.733487 -0.20892 1.13623e-13 -1.81068e-13 1.04244e-13 -62.3567 6.88826 2.12437 5.93567 -2.12796 -10.2723 0.124593 11.309 -1.60529 2.34455e-10 -1.16772e-09 -3.26148e-09 3.70716e-10 -2.02317e-09 -5.63816e-09 2.34448e-10 -1.16772e-09 -3.26146e-09 -7.73091 5.47488 -0.417314 2.34456e-10 -1.16772e-09 -3.26147e-09 -2.90554 0.965183 -0.102902 2.34442e-10 -1.16772e-09 -3.26147e-09 -10.2786 0.731801 -0.0259123 2.34453e-10 -1.16772e-09 -3.26147e-09 -2.22167 -0.733487 0.20892 -2.03217e-16 0.0 -3.88251e-19 2.36469 -26.8658 4.61989 -0.00380049 9.56876 0.173981 -1.61393 -10.7578 -3.95173 2.03217e-16 0.0 3.88251e-19 -4.41236 -22.7825 -5.95701 0.0156647 5.7065 -0.0126458 0.321239 -1.15719 -5.11635
-7.68897 83.4399 124.466 177.817 -1.446 -154.303 -6.74754 -27.8988 -4.13193 3.40645 12.5457 -1.44911 -0.511102 14.8387 -3.67667 4.38897 -24.9157 -6.07268 -0.0 0.0 0.0 -0.0 0.0 0.0 1.34012e-13 -1.51077e-13 1.19321e-13 83.8582 8.51046 -9.14876 -14.6234 -7.46856 26.8169 -0.00587762 -2.18848 -0.307722 -8.97001e-10 -3.63134e-10 1.79931e-09 -1.548e-09 -6.24826e-10 3.11388e-09 -8.96997e-10 -3.6313e-10 1.79931e-09 7.73091 5.47488 0.417314 -8.97003e-10 -3.63132e-10 1.79931e-09 2.90554 0.965183 0.102902 -8.96995e-10 -3.63132e-10 1.79931e-09 10.2786 0.731801 0.0259123 -8.97006e-10 -3.6313e-10 1.79931e-09 2.22167 -0.733487 -0.20892 1.34058e-13 -1.51075e-13 1.19171e-13 -76.0803 8.49012 2.59897 7.14353 -2.57818 -12.5433 0.235645 13.6935 -1.96237 -8.38881e-11 -1.18798e-09 -3.18003e-09 -1.78381e-10 -2.05832e-09 -5.49437e-09 -8.38959e-11 -1.18799e-09 -3.18001e-09 -7.73091 5.47488 -0.417314 -8.38871e-11 -1.18799e-09 -3.18003e-09 -2.90554 0.965183 -0.102902 -8.39019e-11 -1.18799e-09 -3.18002e-09 -10.2786 0.731801 -0.0259123 -8.38923e-11 -1.18799e-09 -3.18002e-09 -2.22167 -0.733487 0.20892 -2.03217e-16 0.0 -3.88251e-19 3.32547 -31.8238 5.96041 -0.0107221 11.2306 0.217234 -2.11456 -13.5659 -4.88302 2.03217e-16 0.0 3.88251e-19 -5.95281 -27.18 -7.51437 0.0193003 7.16866 -0.0293475 0.185957 -2.16982 -6.19972
-7.70532 83.4144 124.474 177.833 -1.3473 -154.234 -7.37084 -29.9325 -4.41821 3.63617 13.4136 -1.53649 -0.405377 15.8392 -3.96487 4.43466 -26.4765 -6.62184 -0.0 0.0 0.0 -0.0 0.0 0.0 1.35006e-13 1.04862e-14 1.09612e-13 89.8934 8.99086 -9.88939 -15.4168 -7.88115 28.7941 -0.00758228 -2.41125 -0.339094 -1.19784e-09 3.80104e-10 6.83732e-10 -2.06838e-09 6.58628e-10 1.18406e-09 -1.19784e-09 3.80107e-10 6.83725e-10 7.73091 5.47488 0.417314 -1.19785e-09 3.80106e-10 6.83733e-10 2.90554 0.965183 0.102902 -1.19784e-09 3.80106e-10 6.83728e-10 10.2786 0.731801 0.0259123 -1.19785e-09 3.80108e-10 6.8373e-10 2.22167 -0.733487 -0.20892 1.35071e-13 1.04871e-14 1.09459e-13 -81.4421 9.29533 2.79422 7.61846 -2.7571 -13.4549 0.280915 14.4654 -2.08066 -9.54895e-10 -7.0872e-10 -1.4438e-09 -1.66473e-09 -1.22806e-09 -2.48543e-09 -9.54902e-10 -7.08722e-10 -1.44378e-09 -7.73091 5.47488 -0.417314 -9.54893e-10 -7.08723e-10 -1.44379e-09 -2.90554 0.965183 -0.102902 -9.54908e-10 -7.08721e-10 -1.44379e-09 -10.2786 0.731801 -0.0259123 -9.54899e-10 -7.0872e-10 -1.44379e-09 -2.22167 -0.733487 0.20892 -2.03217e-16 0.0 -3.88251e-19 3.84933 -33.8248 6.60962 -0.0136115 11.8932 0.234248 -2.33166 -14.6527 -5.2403 2.03217e-16 0.0 3.88251e-19 -6.57334 -28.9618 -8.1311 0.0198821 7.76409 -0.0362422 0.125833 -2.5741 -6.59373
-7.69675 83.3979 124.501 177.951 -1.1963 -154.076 -7.21441 -29.8372 -4.24451 3.56851 13.2946 -1.49287 -0.311513 15.6686 -3.94849 4.36648 -26.0363 -6.60111 -0.0 0.0 0.0 -0.0 0.0 0.0 1.22208e-13 2.64782e-13 8.23807e-14 89.2786 8.78019 -9.93803 -15.3749 -7.87471 28.6696 -0.00805779 -2.49554 -0.350961 -1.52976e-09 1.5132e-09 -1.15156e-09 -2.64293e-09 2.61506e-09 -1.99092e-09 -1.52975e-09 1.5132e-09 -1.15157e-09 7.73091 5.47488 0.417314 -1.52976e-09 1.5132e-09 -1.15156e-09 2.90554 0.965183 0.102902 -1.52975e-09 1.5132e-09 -1.15156e-09 10.2786 0.731801 0.0259123 -1.52976e-09 1.5132e-09 -1.15156e-09 2.22167 -0.733487 -0.20892 1.22286e-13 2.64781e-13 8.22161e-14 -80.8178 9.53193 2.78668 7.58841 -2.74831 -13.3947 0.264232 14.0863 -2.02338 -2.2152e-09 1.24065e-10 1.46055e-09 -3.81128e-09 2.14645e-10 2.54598e-09 -2.21521e-09 1.24066e-10 1.46056e-09 -7.73091 5.47488 -0.417314 -2.2152e-09 1.24065e-10 1.46055e-09 -2.90554 0.965183 -0.102902 -2.21522e-09 1.24066e-10 1.46055e-09 -10.2786 0.731801 -0.0259123 -2.21521e-09 1.24067e-10 1.46055e-09 -2.22167 -0.733487 0.20892 -2.03217e-16 0.0 -3.88251e-19 3.91763 -33.7287 6.6695 -0.0123298 11.842 0.232185 -2.29855 -14.5152 -5.17131 2.03217e-16 0.0 3.88251e-19 -6.39802 -28.8953 -7.99318 0.0178526 7.74033 -0.0360697 0.138697 -2.54623 -6.49401
-7.69351 83.3846 124.488 178.03 -1.2047 -154.106 -6.75935 -28.8716 -3.90928 3.38815 12.7874 -1.40206 -0.238121 15.0327 -3.80758 4.26294 -24.8214 -6.3468 -0.0 0.0 0.0 -0.0 0.0 0.0 1.06414e-13 5.14307e-13 5.04731e-14 85.9899 8.30242 -9.67731 -14.9916 -7.69416 27.6834 -0.00786874 -2.507 -0.352567 -1.84218e-09 2.61426e-09 -3.00535e-09 -3.18383e-09 4.51607e-09 -5.19797e-09 -1.84216e-09 2.61426e-09 -3.00537e-09 7.73091 5.47488 0.417314 -1.84218e-09 2.61426e-09 -3.00535e-09 2.90554 0.965183 0.102902 -1.84218e-09 2.61426e-09 -3.00535e-09 10.2786 0.731801 0.0259123 -1.84218e-09 2.61426e-09 -3.00535e-09 2.22167 -0.733487 -0.20892 1.06494e-13 5.14305e-13 5.02925e-14 -77.8112 9.52711 2.68549 7.36322 -2.66784 -12.9576 0.225153 13.2478 -1.89688 -3.44784e-09 9.87733e-10 4.36551e-09 -5.91013e-09 1.71089e-09 7.57815e-09 -3.44785e-09 9.87739e-10 4.36552e-09 -7.73091 5.47488 -0.417314 -3.44784e-09 9.87737e-10 4.36551e-09 -2.90554 0.965183 -0.102902 -3.44785e-09 9.87738e-10 4.36551e-09 -10.2786 0.731801 -0.0259123 -3.44784e-09 9.87738e-10 4.3655e-09 -2.22167 -0.733487 0.20892 -2.03217e-16 0.0 -3.88251e-19 3.77357 -32.7773 6.4624 -0.00954135 11.5001 0.222446 -2.16712 -13.886 -4.93636 2.03217e-16 0.0 3.88251e-19 -5.921 -28.0724 -7.56018 0.0149424 7.46557 -0.0330245 0.179378 -2.34529 -6.20617
-7.70238 83.3694 124.491 178.065 -1.1744 -154.043 -6.48035 -28.2956 -3.70928 3.27875 12.491 -1.34771 -0.192187 14.637 -3.72257 4.20007 -24.0575 -6.19463 -0.0 0.0 0.0 -0.0 0.0 0.0 9.84175e-14 6.61557e-13 2.67365e-14 84.0053 7.98043 -9.48959 -14.7507 -7.57643 27.0771 -0.00774107 -2.5113 -0.353169 -2.08453e-09 3.26138e-09 -4.17643e-09 -3.60328e-09 5.63326e-09 -7.224e-09 -2.08452e-09 3.26138e-09 -4.17645e-09 7.73091 5.47488 0.417314 -2.08454e-09 3.26138e-09 -4.17643e-09 2.90554 0.965183 0.102902 -2.08453e-09 3.26138e-09 -4.17643e-09 10.2786 0.731801 0.0259123 -2.08454e-09 3.26139e-09 -4.17643e-09 2.22167 -0.733487 -0.20892 9.84852e-14 6.61554e-13 2.65378e-14 -76.0292 9.60788 2.60066 7.25136 -2.6312 -12.7385 0.200114 12.6419 -1.8064 -4.23583e-09 1.55965e-09 6.1036e-09 -7.25343e-09 2.70177e-09 1.05893e-08 -4.23584e-09 1.55966e-09 6.10361e-09 -7.73091 5.47488 -0.417314 -4.23583e-09 1.55966e-09 6.10359e-09 -2.90554 0.965183 -0.102902 -4.23584e-09 1.55966e-09 6.1036e-09 -10.2786 0.731801 -0.0259123 -4.23583e-09 1.55966e-09 6.10359e-09 -2.22167 -0.733487 0.20892 -2.03217e-16 0.0 -3.88251e-19 3.68372 -32.2092 6.32553 -0.00798313 11.2908 0.216454 -2.08973 -13.4977 -4.7961 2.03217e-16 0.0 3.88251e-19 -5.64185 -27.585 -7.29643 0.0129267 7.30801 -0.0313078 0.20248 -2.2304 -6.03591
